<?xml version="1.0" encoding="UTF-8"?>
<svg width="35px" height="35px" viewBox="0 0 35 35" version="1.1" xmlns="http://www.w3.org/2000/svg" xmlns:xlink="http://www.w3.org/1999/xlink">
    <!-- Generator: Sketch 51.2 (57519) - http://www.bohemiancoding.com/sketch -->
    <title>Instagram_simple_icon</title>
    <desc>Created with Sketch.</desc>
    <defs></defs>
    <g id="Page-1" stroke="none" stroke-width="1" fill="none" fill-rule="evenodd">
        <g id="Home" transform="translate(-788.000000, -3127.000000)" fill="#FFFFFF" fill-rule="nonzero">
            <g id="Instagram_simple_icon" transform="translate(788.000000, 3127.000000)">
                <path d="M17.4998958,3.15321699 C22.1725828,3.15321699 22.7260169,3.17106984 24.571515,3.25526307 C26.2777342,3.33313486 27.2042692,3.61815533 27.8209866,3.85781427 C28.5810878,4.13835555 29.2686528,4.58568225 29.8331332,5.16690781 C30.4143542,5.73139272 30.8616773,6.41896318 31.1422164,7.17907038 C31.3818734,7.79572325 31.6669611,8.72233502 31.7447628,10.4285677 C31.8289553,12.2739416 31.846808,12.8273801 31.846808,17.5002431 C31.846808,22.1731062 31.8289553,22.7264058 31.7447628,24.5719185 C31.6668916,26.2781512 31.3818039,27.2046935 31.1422164,27.8214159 C30.5534853,29.3476209 29.3471795,30.5539363 27.8209866,31.142672 C27.2043386,31.3823309 26.2777342,31.6674209 24.571515,31.7452232 C22.7265032,31.8294164 22.1730691,31.8472693 17.4998958,31.8472693 C12.8267225,31.8472693 12.2734968,31.8294164 10.4282766,31.7452232 C8.72205738,31.6673514 7.79552243,31.3822615 7.17880499,31.142672 C6.41870276,30.8621328 5.73113732,30.4148058 5.1666584,29.8335785 C4.58543928,29.269092 4.13811642,28.581522 3.85757525,27.8214159 C3.61791821,27.204763 3.33283053,26.2781512 3.25502883,24.5719185 C3.17083627,22.7266142 3.15298356,22.1731062 3.15298356,17.5002431 C3.15298356,12.8273801 3.17083627,12.2740805 3.25502883,10.4285677 C3.3329,8.72233502 3.61791821,7.79579272 3.85757525,7.17907038 C4.1381456,6.4189253 4.58551748,5.73132918 5.16679733,5.16683835 C5.73127926,4.58561462 6.41884382,4.1382882 7.17894392,3.8577448 C7.7955919,3.61808586 8.72219631,3.33299593 10.4284155,3.2551936 C12.2737747,3.17100038 12.8272088,3.15314752 17.5000347,3.15314752 L17.4998958,3.15321699 Z M17.5000347,6.16985213e-17 C12.7473231,6.16985213e-17 12.1511675,0.0201452442 10.2848991,0.105311001 C8.42217349,0.190337825 7.15011561,0.486125583 6.0369955,0.91876207 C4.86931686,1.35818064 3.81154173,2.04702009 2.93743115,2.93724608 C2.04701161,3.81130878 1.3579853,4.86909644 0.918407447,6.03683503 C0.486121724,7.15003344 0.190336314,8.42210142 0.105657494,10.2848418 C0.0201450843,12.1511251 0,12.7472854 0,17.5000347 C0,22.2527841 0.0201450843,22.8489444 0.105657494,24.7152276 C0.190683643,26.577968 0.486469053,27.850036 0.919102105,28.963165 C1.35851919,30.1308519 2.0473529,31.188635 2.93757009,32.0627539 C3.81167782,32.9529834 4.86945377,33.6418234 6.03713444,34.0812379 C7.15032401,34.5138744 8.42238188,34.8096622 10.2850381,34.894689 C12.1515843,34.9798548 12.7475315,35 17.5001737,35 C22.2528158,35 22.8490409,34.9798548 24.7153093,34.894689 C26.5780349,34.8096622 27.8500928,34.5138744 28.9632129,34.0812379 C31.3138485,33.1720948 33.1721093,31.3138192 34.0812452,28.963165 C34.5138783,27.8499666 34.8096637,26.5778986 34.8946898,24.7152276 C34.9798549,22.8486665 35,22.2527146 35,17.5000347 C35,12.7473548 34.9798549,12.1511251 34.8946898,10.2848418 C34.8096637,8.42210142 34.5138783,7.15003344 34.0812452,6.0369045 C33.6418341,4.86921456 32.9529996,3.81143021 32.0627772,2.93731554 C31.1886488,2.04691207 30.1307967,1.35792655 28.9630045,0.918414738 C27.8498149,0.486125583 26.577757,0.190337825 24.7150314,0.105658333 C22.848763,0.0201452442 22.2526074,0 17.4998958,0 L17.5000347,6.16985213e-17 Z" id="Shape"></path>
                <path d="M18,9 C13.0294373,9 9,13.0294373 9,18 C9,22.9705627 13.0294373,27 18,27 C22.9705627,27 27,22.9705627 27,18 C27,13.0294373 22.9705627,9 18,9 Z M18,23.8420516 C14.7735331,23.8420131 12.1579924,21.2264205 12.158018,17.9999536 C12.1580436,14.7734867 14.7736258,12.1579356 18.0000928,12.1579484 C21.2265597,12.1579612 23.8421211,14.7735331 23.8421211,18 C23.8420827,21.2264872 21.2264872,23.8420516 18,23.8420516 Z" id="Shape"></path>
                <circle id="Oval" cx="27" cy="8" r="2"></circle>
            </g>
        </g>
    </g>
</svg>