<?xml version="1.0" encoding="UTF-8"?>
<svg width="36px" height="35px" viewBox="0 0 36 35" version="1.1" xmlns="http://www.w3.org/2000/svg" xmlns:xlink="http://www.w3.org/1999/xlink">
    <!-- Generator: Sketch 51.2 (57519) - http://www.bohemiancoding.com/sketch -->
    <title>LinkedIn</title>
    <desc>Created with Sketch.</desc>
    <defs></defs>
    <g id="Page-1" stroke="none" stroke-width="1" fill="none" fill-rule="evenodd">
        <g id="Home" transform="translate(-617.000000, -3127.000000)" fill="#FFFFFF" fill-rule="nonzero">
            <path d="M620,3127 L650,3127 C651.656854,3127 653,3128.34315 653,3130 L653,3159 C653,3160.65685 651.656854,3162 650,3162 L620,3162 C618.343146,3162 617,3160.65685 617,3159 L617,3130 C617,3128.34315 618.343146,3127 620,3127 Z M648,3147.32748 C648,3142.14612 645.250553,3139.73512 641.582951,3139.73518 C638.622658,3139.73518 637.300102,3141.37477 636.559545,3142.52252 L636.559545,3142.57702 L636.522914,3142.57702 C636.533552,3142.55968 636.548242,3142.5404 636.559545,3142.52252 L636.559545,3140.13147 L630.985574,3140.13147 C631.060651,3141.7151 630.985574,3157 630.985574,3157 L636.560089,3157 L636.560089,3147.57955 C636.560089,3147.0748 636.59793,3146.57292 636.744941,3146.21234 C637.148074,3145.20371 638.064415,3144.16101 639.604224,3144.16101 C641.621336,3144.16101 642.427358,3145.70821 642.427358,3147.97529 L642.427358,3157 L648,3157 L648,3147.32748 Z M625.154393,3132 C623.247358,3132 622,3133.25869 622,3134.91392 C622,3136.53307 623.21127,3137.82996 625.080404,3137.82996 L625.11764,3137.82996 C627.061609,3137.82996 628.270582,3136.53331 628.270582,3134.91392 C628.23395,3133.25869 627.061609,3132 625.154393,3132 Z M622.331077,3157 L627.903477,3157 L627.903477,3140.13147 L622.331077,3140.13147 L622.331077,3157 Z" id="LinkedIn"></path>
        </g>
    </g>
</svg>